<svg width="203" height="203" viewBox="0 0 203 203" fill="none" xmlns="http://www.w3.org/2000/svg">
<rect width="203" height="203" rx="50" fill="#0EA5E9"/>
<path d="M53.9527 73C36.3905 73 32 87.6351 32 94.9527C32 102.27 36.3905 116.905 53.9527 116.905C71.5148 116.905 75.9053 102.27 75.9053 94.9527C75.9053 87.6351 71.5148 73 53.9527 73Z" stroke="white" stroke-width="15"/>
<path d="M150.047 73C132.485 73 128.095 87.6351 128.095 94.9527C128.095 102.27 132.485 116.905 150.047 116.905C167.61 116.905 172 102.27 172 94.9527C172 87.6351 167.61 73 150.047 73Z" stroke="white" stroke-width="15"/>
<path d="M53.1243 120.219C54.53 128.503 69.5643 151.698 99.929 151.698C130.294 151.698 142.102 135.13 146.32 126.846" stroke="white" stroke-width="15"/>
<path d="M154.888 145.282L125.484 127.922L150.673 119.391L154.888 145.282Z" fill="white"/>
</svg>
