<svg width="24" height="24" viewBox="0 0 24 24" fill="none" xmlns="http://www.w3.org/2000/svg">
<rect width="24" height="24" rx="5" fill="#0EA5E9"/>
<path fill-rule="evenodd" clip-rule="evenodd" d="M4.1458 11C4.5558 9.83 5.6658 9 6.9758 9C7.77145 9 8.53451 9.31607 9.09712 9.87868C9.65973 10.4413 9.9758 11.2044 9.9758 12C9.9758 12.65 9.7658 13.25 9.4158 13.74L10.5458 15.35L13.5858 4L15.0858 6.13L17.1758 9.11L17.9758 9C19.2858 9 20.3958 9.83 20.8058 11C20.9187 11.4604 21.0723 12.5172 20.7838 13.0607C20.3572 14.1986 19.263 15 17.9758 15C17.1802 15 16.4171 14.6839 15.8545 14.1213C15.2919 13.5587 14.9758 12.7956 14.9758 12C14.9758 11.35 15.1858 10.75 15.5358 10.26L14.4058 8.65L11.3658 20L7.7758 14.89C7.5258 14.96 7.2558 15 6.9758 15C5.6658 15 4.5558 14.17 4.1458 13C3.88174 12.2 4.03578 11.3333 4.1458 11ZM16.9151 10.9393C17.1964 10.658 17.578 10.5 17.9758 10.5C18.3736 10.5 18.7552 10.658 19.0365 10.9393C19.3178 11.2206 19.4758 11.6022 19.4758 12C19.4758 12.3978 19.3178 12.7794 19.0365 13.0607C18.7552 13.342 18.3736 13.5 17.9758 13.5C17.578 13.5 17.1964 13.342 16.9151 13.0607C16.6338 12.7794 16.4758 12.3978 16.4758 12C16.4758 11.6022 16.6338 11.2206 16.9151 10.9393ZM5.91514 10.9393C6.19645 10.658 6.57798 10.5 6.9758 10.5C7.37363 10.5 7.75516 10.658 8.03646 10.9393C8.31777 11.2206 8.4758 11.6022 8.4758 12C8.4758 12.3978 8.31777 12.7794 8.03646 13.0607C7.75516 13.342 7.37363 13.5 6.9758 13.5C6.57798 13.5 6.19645 13.342 5.91514 13.0607C5.63384 12.7794 5.4758 12.3978 5.4758 12C5.4758 11.6022 5.63384 11.2206 5.91514 10.9393Z" fill="white"/>
</svg>
